# AST/ASF file generated using VICON BodyLanguage
# -----------------------------------------------
:version 1.10
:name VICON
:units
  mass 1.0
  length 0.45
  angle deg
:documentation
   .ast/.asf automatically generated from VICON data using
   VICON BodyBuilder and BodyLanguage model FoxedUp or BRILLIANT.MOD
:root
   order TX TY TZ RX RY RZ
   axis XYZ
   position 0 0 0  
   orientation 0 -0 0 
:bonedata
  begin
     id 1 
     name lhipjoint
     direction 0.500677 -0.737119 0.453848 
     length 2.34727 
     axis 0 -0 0  XYZ
  end
  begin
     id 2 
     name lfemur
     direction 0.34202 -0.939693 0  
     length 7.53653  
     axis 0 -0 20  XYZ
    dof rx ry rz
    limits (-160.0 20.0)
           (-70.0 70.0)
           (-60.0 70.0)
  end
  begin
     id 3 
     name ltibia
     direction 0.34202 -0.939693 0   
     length 6.85572   
     axis 0 -0 20   XYZ
    dof rx
    limits (-10.0 170.0)
  end
  begin
     id 4 
     name lfoot
     direction 0.155313 -0.426718 0.890949   
     length 2.18324   
     axis -90 -1.13533e-015 20   XYZ
    dof rx rz
    limits (-45.0 90.0)
           (-70.0 20.0)
  end
  begin
     id 5 
     name ltoes
     direction 1.53474e-011 -4.21647e-011 1   
     length 1.06748   
     axis -90 -1.13533e-015 20   XYZ
    dof rx
    limits (-90.0 20.0)
  end
  begin
     id 6 
     name rhipjoint
     direction -0.632471 -0.659587 0.406111   
     length 2.62319  
     axis 0 -0 0  XYZ 
  end
  begin
     id 7 
     name rfemur
     direction -0.34202 -0.939693 0   
     length 7.21735   
     axis 0 -0 -20   XYZ
    dof rx ry rz
    limits (-160.0 20.0)
           (-70.0 70.0)
           (-70.0 60.0)
  end
  begin
     id 8 
     name rtibia
     direction -0.34202 -0.939693 0   
     length 7.02558   
     axis 0 -0 -20   XYZ
    dof rx
    limits (-10.0 170.0)
 end
 begin
     id 9 
     name rfoot
     direction -0.16057 -0.441164 0.882945   
     length 2.10014  
     axis -90 1.13533e-015 -20   XYZ
    dof rx rz
    limits (-45.0 90.0)
           (-20.0 70.0)
  end
  begin
     id 10 
     name rtoes
     direction -1.53553e-011 -4.2192e-011 1   
     length 1.02554   
     axis -90 1.13533e-015 -20   XYZ
    dof rx
    limits (-90.0 20.0)
  end
  begin
     id 11 
     name lowerback
     direction 0.0401429 0.998861 -0.0258085   
     length 1.80848   
     axis 0 -0 0   XYZ
    dof rx ry rz
    limits (-20.0 45.0)
           (-30.0 30.0)
           (-30.0 30.0)
  end
  begin
     id 12 
     name upperback
     direction -0.0130978 0.999914 -0.000352645   
     length 1.8116   
     axis 0 -0 0   XYZ
    dof rx ry rz
    limits (-20.0 45.0)
           (-30.0 30.0)
           (-30.0 30.0)
  end
  begin
     id 13 
     name thorax
     direction -0.0300198 0.999453 0.0138573   
     length 1.81778   
     axis 0 -0 0   XYZ
    dof rx ry rz
    limits (-20.0 45.0)
           (-30.0 30.0)
           (-30.0 30.0)
  end
  begin
     id 14 
     name lowerneck
     direction -0.0401726 0.999191 -0.00173647   
     length 2.10594   
     axis 0 -0 0   XYZ
    dof rx ry rz
    limits (-20.0 45.0)
           (-30.0 30.0)
           (-30.0 30.0)
  end
  begin
     id 15 
     name upperneck
     direction 0.0119835 0.998501 0.0534085   
     length 2.07325   
     axis 0 -0 0   XYZ
    dof rx ry rz
    limits (-20.0 45.0)
           (-30.0 30.0)
           (-30.0 30.0)
  end
  begin
     id 16
     name head
     direction 0.00628309 0.999826 0.0175921  
     length 2.15096  
     axis 0 -0 0   XYZ
    dof rx ry rz
    limits (-20.0 45.0)
           (-30.0 30.0)
           (-30.0 30.0)
  end
  begin
     id 17 
     name lclavicle
     direction 0.895501 0.429681 -0.115981  
     length 4.18092  
     axis 0 -0 0   XYZ
    dof ry rz
    limits (-20.0 10.0)
           (0.0 20.0)
  end
  begin
     id 18 
     name lhumerus
     direction 1 -4.48961e-011 -3.38433e-028   
     length 5.77237   
     axis 180 -30 -90   XYZ
    dof rx ry rz
    limits (-60.0 90.0)
           (-90.0 90.0)
           (-90.0 90.0)
  end
  begin
     id 19
     name lradius
     direction 1 -4.4901e-011 1.11983e-026   
     length 2.91878   
     axis 180 -30 -90   XYZ
    dof rx
    limits (-10.0 170.0)
  end
  begin
     id 20
     name lwrist
     direction 1 -4.48934e-011 1.88176e-026   
     length 1.45939   
     axis -1.23311e-014 90 90   XYZ
    dof ry
    limits (-180.0 0.0)
 end
  begin
     id 21 
     name lhand
     direction 1 -4.4895e-011 3.76352e-026   
     length 1.06566   
     axis -2.40147e-014 90 90   XYZ
    dof rx rz
    limits (-90.0 90.0)
           (-45.0 45.0)
  end
  begin
     id 22 
     name lfingers
     direction 1 -4.49005e-011 7.52705e-026   
     length 0.859162   
     axis -4.80295e-014 90 90   XYZ
    dof rx
    limits (0.0 90.0)
  end
  begin
     id 23
     name lthumb
     direction 0.707107 -6.34885e-011 0.707107   
     length 1.23359   
     axis -90 45 -9.86935e-015   XYZ
    dof rx rz
    limits (-45.0 45.0)
           (-45.0 45.0)
  end
  begin
     id 24 
     name rclavicle
     direction -0.91006 0.40451 -0.0903492   
     length 4.23293  
     axis 0 -0 0   XYZ 
    dof ry rz
    limits (-10.0 20.0)
           (-20.0 0.0)
  end
  begin
     id 25 
     name rhumerus
     direction -1 -4.4897e-011 1.7415e-027  
     length 5.49854   
     axis 180 30 90   XYZ
    dof rx ry rz
    limits (-90.0 60.0)
           (-90.0 90.0)
           (-90.0 90.0)
  end
  begin
     id 26 
     name rradius
     direction -1 -4.48963e-011 1.21259e-026   
     length 3.1186   
     axis 180 30 90   XYZ
    dof rx
    limits (-10.0 170.0)
  end
  begin
     id 27 
     name rwrist
     direction -1 -4.48967e-011 1.88176e-026   
     length 1.5593   
     axis -1.23311e-014 -90 -90   XYZ
    dof ry
    limits (-180.0 0.0)
  end
  begin
     id 28
     name rhand
     direction -1 -4.4895e-011 3.76352e-026   
     length 0.71207   
     axis -2.40147e-014 -90 -90   XYZ
    dof rx rz
    limits (-90.0 90.0)
           (-45.0 45.0)
  end
  begin
     id 29
     name rfingers
     direction -1 -4.49005e-011 7.52705e-026   
     length 0.574089   
     axis -4.80295e-014 -90 -90   XYZ
    dof rx
    limits (0.0 90.0)
  end
  begin
     id 30
     name rthumb
     direction -0.707107 -6.34982e-011 0.707107   
     length 0.824281   
     axis -90 -45 9.86935e-015   XYZ
    dof rx rz
    limits (-45.0 45.0)
           (-45.0 45.0)
  end
:hierarchy
  begin
    root lhipjoint rhipjoint lowerback
    lhipjoint lfemur
    lfemur ltibia
    ltibia lfoot
    lfoot ltoes
    rhipjoint rfemur
    rfemur rtibia
    rtibia rfoot
    rfoot rtoes
    lowerback upperback
    upperback thorax
    thorax lowerneck lclavicle rclavicle
    lowerneck upperneck
    upperneck head
    lclavicle lhumerus
    lhumerus lradius
    lradius lwrist
    lwrist lhand lthumb
    lhand lfingers
    rclavicle rhumerus
    rhumerus rradius
    rradius rwrist
    rwrist rhand rthumb
    rhand rfingers
  end

#!OML:ASF C:\ViconDB\ViconDB\414\Spring2016\042216\male.ASF
:FULLY-SPECIFIED
:DEGREES
443
root 31.3393 17.4176 10.7298 -179.124 87.2821 -180.313
lowerback -1.5899 -3.48124 2.24974
upperback -0.447806 -4.67318 -0.271889
thorax 0.227601 -2.33708 -1.60768
lowerneck -3.42769 4.82842 -2.24213
upperneck 3.06752 6.52065 0.935843
head 1.41768 3.248 0.804481
rclavicle -2.18667e-014 -4.12478e-015
rhumerus -39.2425 -18.0028 -81.4632
rradius 26.3087
rwrist 32.6933
rhand 12.2177 -19.3637
rfingers 7.12502
rthumb 37.2266 -45.3692
lclavicle -2.18667e-014 -4.12478e-015
lhumerus -25.6159 5.38904 89.7322
lradius 37.6056
lwrist -10.9524
lhand -6.75345 11.0427
lfingers 7.12502
lthumb 19.1079 40.1241
rfemur -27.7701 -6.36511 23.0817
rtibia 19.5003
rfoot -8.52273 -0.776981
rtoes -20.1569
lfemur 12.6962 -3.25212 -22.9159
ltibia 11.1504
lfoot -23.2263 10.95
ltoes -20.7953
444
root 31.5437 17.4223 10.752 -177.644 86.9844 -178.749
lowerback -1.69279 -3.53822 2.3281
upperback -0.508307 -4.75182 -0.224685
thorax 0.21722 -2.37678 -1.60823
lowerneck -3.13666 4.7774 -2.11986
upperneck 2.96392 6.44652 0.762144
head 1.3446 3.20984 0.717749
rclavicle 6.32663e-014 -5.51627e-015
rhumerus -39.4584 -17.5198 -81.5711
rradius 26.3215
rwrist 31.9275
rhand 11.7928 -19.3131
rfingers 7.12502
rthumb 36.8247 -45.4226
lclavicle 6.32663e-014 -5.51627e-015
lhumerus -26.0774 5.50416 89.7447
lradius 37.4574
lwrist -11.0384
lhand -6.7882 10.9861
lfingers 7.12502
lthumb 19.0745 40.0707
rfemur -27.5265 -5.27949 22.6842
rtibia 20.1275
rfoot -6.89275 -2.23276
rtoes -19.1452
lfemur 13.0706 -4.15555 -22.8788
ltibia 11.9378
lfoot -23.0057 10.743
ltoes -20.5264
445
root 31.7516 17.4289 10.7741 -175.91 86.7446 -177.023
lowerback -2.00024 -3.53644 2.47234
upperback -0.54258 -4.75903 -0.169365
thorax 0.34647 -2.37859 -1.65162
lowerneck -3.12002 4.73846 -2.09114
upperneck 3.11188 6.3975 0.669415
head 1.39338 3.18318 0.686406
rclavicle -4.31937e-014 4.17448e-015
rhumerus -39.6917 -17.6733 -81.347
rradius 26.2256
rwrist 32.3282
rhand 12.0444 -18.9191
rfingers 7.12502
rthumb 37.0627 -44.9673
lclavicle -4.31937e-014 4.17448e-015
lhumerus -26.4965 5.75662 89.8207
lradius 37.2497
lwrist -10.9297
lhand -7.08931 11.1602
lfingers 7.12502
lthumb 18.7849 40.2732
rfemur -27.1804 -3.51873 22.0378
rtibia 20.6234
rfoot -6.35051 -3.55608
rtoes -18.3767
lfemur 13.0837 -4.82997 -22.8456
ltibia 13.3743
lfoot -22.5167 11.142
ltoes -22.3825
446
root 31.9506 17.4236 10.7975 -173.691 86.6095 -174.757
lowerback -2.16264 -3.41954 2.74362
upperback -0.552161 -4.6129 -0.148566
thorax 0.414415 -2.3044 -1.78878
lowerneck -3.09043 4.5764 -2.123
upperneck 3.1771 6.18307 0.660435
head 1.41154 3.07526 0.685547
rclavicle 6.45662e-014 0
rhumerus -39.8142 -18.0652 -81.0065
rradius 26.0351
rwrist 32.8386
rhand 11.9279 -18.8931
rfingers 7.12502
rthumb 36.9525 -44.9699
lclavicle 6.45662e-014 0
lhumerus -26.8753 5.79958 89.89
lradius 36.9127
lwrist -11.2617
lhand -7.05768 11.1141
lfingers 7.12502
lthumb 18.8153 40.2241
rfemur -26.832 -2.88948 22.0255
rtibia 21.1468
rfoot -5.44282 -3.88041
rtoes -19.122
lfemur 12.8196 -5.37321 -22.7669
ltibia 15.4503
lfoot -22.8892 11.3206
ltoes -22.773
447
root 32.1536 17.4148 10.8233 -169.488 86.4446 -170.435
lowerback -2.27312 -3.35163 3.07314
upperback -0.567814 -4.53266 -0.0626777
thorax 0.445489 -2.26337 -1.88874
lowerneck -3.11619 4.49772 -2.13137
upperneck 3.38374 6.0791 0.703783
head 1.48202 3.02289 0.703624
rclavicle 8.94531e-014 -8.44835e-015
rhumerus -39.8346 -18.0439 -80.8771
rradius 25.6974
rwrist 32.7331
rhand 11.6895 -19.0068
rfingers 7.12502
rthumb 36.7269 -45.1413
lclavicle 8.94531e-014 -8.44835e-015
lhumerus -27.3266 6.41905 89.7825
lradius 36.4537
lwrist -12.0518
lhand -6.72087 10.9918
lfingers 7.12502
lthumb 19.1393 40.07
rfemur -26.4332 -2.73211 22.3207
rtibia 22.0117
rfoot -4.80054 -3.57415
rtoes -17.7881
lfemur 12.4184 -5.59184 -22.393
ltibia 17.7966
lfoot -22.5373 11.1508
ltoes -24.5101
448
root 32.3552 17.4111 10.8436 -175.157 86.4851 -175.95
lowerback -2.26394 -3.26171 2.87537
upperback -0.652425 -4.40585 -0.16468
thorax 0.367392 -2.2023 -1.87735
lowerneck -2.95287 4.41602 -2.17441
upperneck 3.53376 5.97054 0.697763
head 1.50204 2.9675 0.705093
rclavicle -1.40671e-014 -1.09332e-015
rhumerus -39.9938 -18.3413 -80.4587
rradius 25.3202
rwrist 33.4312
rhand 12.0481 -18.7736
rfingers 7.12502
rthumb 37.0662 -44.8209
lclavicle -1.40671e-014 -1.09332e-015
lhumerus -28.0157 6.96644 89.6214
lradius 36.0625
lwrist -12.7653
lhand -6.42463 10.714
lfingers 7.12502
lthumb 19.4241 39.7638
rfemur -26.113 -3.18044 22.0838
rtibia 23.0742
rfoot -5.17809 -2.09997
rtoes -16.3816
lfemur 11.8032 -5.3207 -22.6037
ltibia 20.4959
lfoot -21.5585 10.8151
ltoes -26.3662
449
root 32.5603 17.4016 10.8559 -176.102 86.7409 -176.564
lowerback -2.23525 -3.17952 3.00193
upperback -0.595784 -4.29911 -0.271682
thorax 0.397572 -2.14835 -2.05524
lowerneck -2.9918 4.4432 -1.85912
upperneck 3.83298 6.00053 0.591326
head 1.61662 2.98293 0.628282
rclavicle 2.95537e-014 4.96962e-015
rhumerus -40.0201 -18.4348 -80.3903
rradius 25.0346
rwrist 34.331
rhand 12.0073 -18.844
rfingers 7.12502
rthumb 37.0276 -44.9013
lclavicle 2.95537e-014 4.96962e-015
lhumerus -28.6609 7.62405 89.2714
lradius 35.7989
lwrist -12.8086
lhand -6.41181 11.0073
lfingers 7.12502
lthumb 19.4364 40.0559
rfemur -25.7233 -4.32945 22.4512
rtibia 24.1913
rfoot -5.59957 -0.15316
rtoes -15.856
lfemur 11.2512 -4.62901 -22.4062
ltibia 23.412
lfoot -20.5843 9.83616
ltoes -27.9267
450
root 32.7532 17.4006 10.8699 -180.326 86.8642 -180.657
lowerback -2.35205 -3.07703 2.93864
upperback -0.539405 -4.16554 -0.348281
thorax 0.527204 -2.0791 -2.10556
lowerneck -3.17863 4.40758 -2.04213
upperneck 4.08519 5.95825 0.801126
head 1.71988 2.96228 0.733574
rclavicle 3.49737e-015 0
rhumerus -39.9461 -18.8499 -80.0803
rradius 24.8012
rwrist 35.6052
rhand 12.4859 -18.9175
rfingers 7.12502
rthumb 37.4802 -44.8563
lclavicle 3.49737e-015 0
lhumerus -29.1245 8.55012 89.0489
lradius 35.3653
lwrist -13.4661
lhand -6.43407 11.2681
lfingers 7.12502
lthumb 19.415 40.3189
rfemur -25.5258 -5.38093 22.554
rtibia 25.2732
rfoot -5.96884 1.20022
rtoes -15.4181
lfemur 10.2556 -3.92491 -22.2877
ltibia 26.451
lfoot -18.9251 8.74583
ltoes -29.5537
451
root 32.937 17.4018 10.8949 -179.128 86.8659 -179.327
lowerback -2.24915 -3.07813 2.95804
upperback -0.584304 -4.16361 -0.285084
thorax 0.427038 -2.08005 -2.0437
lowerneck -3.27935 4.42363 -1.92216
upperneck 4.4459 5.98491 0.687004
head 1.86107 2.97311 0.689592
rclavicle -1.78658e-014 -7.05686e-015
rhumerus -39.8777 -18.7253 -80.0035
rradius 24.6312
rwrist 36.4192
rhand 12.7518 -19.0602
rfingers 7.12502
rthumb 37.7314 -44.932
lclavicle -1.78658e-014 -7.05686e-015
lhumerus -29.7731 9.56545 88.6758
lradius 34.9833
lwrist -14.0745
lhand -6.44163 11.3267
lfingers 7.12502
lthumb 19.4078 40.3781
rfemur -25.1574 -5.71385 22.7718
rtibia 26.1628
rfoot -6.54777 1.63572
rtoes -14.6451
lfemur 9.02508 -3.33336 -21.7244
ltibia 29.6305
lfoot -16.9279 7.56611
ltoes -31.2534
452
root 33.1175 17.4085 10.9219 -175.838 86.8568 -175.988
lowerback -2.16993 -3.0182 3.2076
upperback -0.67113 -4.08442 -0.281791
thorax 0.280803 -2.04379 -2.16939
lowerneck -3.32918 4.37631 -2.06805
upperneck 4.71154 5.91475 1.04999
head 1.94248 2.94338 0.832719
rclavicle -3.71106e-014 -6.06293e-015
rhumerus -39.8225 -18.5892 -80.0916
rradius 24.4754
rwrist 36.8499
rhand 12.5004 -19.3554
rfingers 7.12502
rthumb 37.4939 -45.2906
lclavicle -3.71106e-014 -6.06293e-015
lhumerus -30.4705 10.2342 88.2705
lradius 34.6637
lwrist -14.5414
lhand -5.97855 11.2084
lfingers 7.12502
lthumb 19.853 40.2144
rfemur -24.6841 -5.96871 23.1341
rtibia 26.707
rfoot -7.14363 1.99438
rtoes -13.6244
lfemur 7.53036 -2.87573 -21.0897
ltibia 32.9972
lfoot -14.6711 6.55878
ltoes -32.0933
453
root 33.2925 17.4127 10.9472 -171.889 86.8382 -171.845
lowerback -1.93082 -2.96115 3.46775
upperback -0.690585 -4.00447 -0.23231
thorax 0.11757 -2.00717 -2.24713
lowerneck -3.47737 4.34287 -2.13572
upperneck 5.05597 5.87054 1.22399
head 2.07549 2.92331 0.90981
rclavicle -9.87401e-015 -8.24956e-015
rhumerus -39.7213 -18.7751 -79.9204
rradius 24.3792
rwrist 38.1562
rhand 13.4143 -18.8062
rfingers 7.12502
rthumb 38.357 -44.5074
lclavicle -9.87401e-015 -8.24956e-015
lhumerus -31.0247 11.1144 87.8174
lradius 34.1648
lwrist -15.4476
lhand -5.49099 10.8524
lfingers 7.12502
lthumb 20.3216 39.8092
rfemur -23.9387 -6.29836 23.5585
rtibia 27.0093
rfoot -7.6916 2.42576
rtoes -13.0779
lfemur 6.08662 -2.44309 -20.3901
ltibia 36.4501
lfoot -12.3739 5.57036
ltoes -31.9433
454
root 33.4673 17.4301 10.9766 -160.86 86.4623 -160.691
lowerback -1.81215 -2.9494 4.19092
upperback -0.709067 -3.99471 -0.0653711
thorax -0.0052036 -2.00535 -2.46976
lowerneck -3.61305 4.27676 -2.15334
upperneck 5.37339 5.78063 1.36585
head 2.20153 2.88103 0.96663
rclavicle 2.4876e-014 1.19271e-015
rhumerus -39.5049 -18.4333 -80.202
rradius 24.4001
rwrist 37.9168
rhand 13.2786 -19.1452
rfingers 7.12502
rthumb 38.2289 -44.8818
lclavicle 2.4876e-014 1.19271e-015
lhumerus -31.5537 11.6208 87.5608
lradius 33.778
lwrist -15.0598
lhand -5.88315 10.9384
lfingers 7.12502
lthumb 19.9447 39.9349
rfemur -23.0737 -6.69873 24.4915
rtibia 26.9449
rfoot -8.19056 2.60745
rtoes -12.7966
lfemur 4.40892 -2.15189 -19.1232
ltibia 40.0276
lfoot -9.85873 4.71308
ltoes -31.6153
455
root 33.6427 17.4423 11.0054 -157.587 86.044 -157.225
lowerback -1.65629 -3.007 4.42145
upperback -0.705978 -4.06668 0.0662083
thorax -0.101178 -2.04305 -2.45408
lowerneck -3.54313 4.2701 -2.16511
upperneck 5.47582 5.76889 1.42645
head 2.22078 2.87655 0.987611
rclavicle 9.72802e-015 2.28602e-015
rhumerus -39.252 -17.9842 -80.4507
rradius 24.4082
rwrist 37.9105
rhand 13.4946 -18.9268
rfingers 7.12502
rthumb 38.4328 -44.607
lclavicle 9.72802e-015 2.28602e-015
lhumerus -32.0836 12.2534 87.2371
lradius 33.3449
lwrist -15.3138
lhand -5.48215 10.7338
lfingers 7.12502
lthumb 20.3301 39.6897
rfemur -22.0695 -7.21393 24.9627
rtibia 26.7522
rfoot -8.58691 2.82292
rtoes -12.1054
lfemur 2.89755 -1.64807 -18.2948
ltibia 43.4726
lfoot -7.95523 4.06951
ltoes -30.9651
456
root 33.8086 17.4608 11.0468 -147.103 85.4458 -146.544
lowerback -1.38657 -3.01 5.01049
upperback -0.695064 -4.05947 0.465417
thorax -0.252849 -2.04113 -2.35594
lowerneck -3.49981 4.26342 -2.12507
upperneck 5.53675 5.76599 1.28473
head 2.2382 2.8719 0.936139
rclavicle 2.12078e-014 -1.38155e-014
rhumerus -38.8297 -17.2071 -80.8506
rradius 24.3864
rwrist 37.3041
rhand 13.0746 -19.211
rfingers 7.12502
rthumb 38.0363 -45.0003
lclavicle 2.12078e-014 -1.38155e-014
lhumerus -32.5378 12.8559 86.9809
lradius 32.9192
lwrist -15.7606
lhand -5.2262 10.6559
lfingers 7.12502
lthumb 20.5761 39.5854
rfemur -20.9477 -7.07863 26.1172
rtibia 26.2618
rfoot -8.83273 2.45131
rtoes -11.4495
lfemur 1.25058 -1.4109 -16.7773
ltibia 46.8516
lfoot -6.60199 3.16436
ltoes -27.8749
457
root 33.9875 17.4819 11.0779 -147.714 84.9747 -146.748
lowerback -1.18104 -3.09436 4.99306
upperback -0.533158 -4.16442 0.587437
thorax -0.199068 -2.08888 -2.21482
lowerneck -3.52146 4.23443 -2.16841
upperneck 5.5745 5.72824 1.32314
head 2.25304 2.85318 0.956098
rclavicle 3.69802e-014 -4.47266e-015
rhumerus -38.3077 -16.5607 -81.2417
rradius 24.433
rwrist 36.6677
rhand 13.1614 -19.0593
rfingers 7.12502
rthumb 38.1183 -44.8262
lclavicle 3.69802e-014 -4.47266e-015
lhumerus -32.8579 13.3635 86.7064
lradius 32.4331
lwrist -16.1111
lhand -5.55333 11.1456
lfingers 7.12502
lthumb 20.2617 40.1087
rfemur -19.5524 -7.94047 26.4204
rtibia 25.8076
rfoot -9.3062 2.82593
rtoes -11.2352
lfemur 0.0484909 -1.87202 -16.3642
ltibia 49.8986
lfoot -5.93444 2.69424
ltoes -22.7472
